<svg width="800" height="738" viewBox="0 0 800 738" fill="none" xmlns="http://www.w3.org/2000/svg">
<path d="M512.647 465.919C497.095 465.919 484.473 478.541 484.473 494.092C484.473 509.62 497.095 522.242 512.647 522.242C528.198 522.242 540.797 509.62 540.797 494.092C540.795 478.541 528.198 465.919 512.647 465.919Z" fill="#F8F8F8"/>
<path d="M399.5 247.936H410L399.5 226.936L389 247.936H399.5Z" fill="#F8F8F8"/>
<path d="M435.303 218.906C446.411 218.906 455.42 209.873 455.42 198.789V194.223C455.42 183.116 446.411 174.106 435.303 174.106C424.195 174.106 415.186 183.116 415.186 194.223V198.789C415.186 209.873 424.194 218.906 435.303 218.906Z" fill="#F8F8F8"/>
<path d="M710.009 374.073C759.692 374.073 800 333.791 800 284.083C800 234.375 759.692 194.092 710.009 194.092C660.302 194.092 642.009 198.941 607 168.936C521.991 113.906 510.009 0 400 0C289.991 0 270.945 113.906 185.936 168.936C150.927 198.941 139.697 194.092 89.9906 194.092C40.2844 194.092 0 234.375 0 284.083C0 333.791 40.2828 374.073 89.9906 374.073L127 374.072L24.5359 646.362L107.959 633.837L141.358 721.436L205 646.362C259.639 705.567 315.358 737.5 402.1 737.5C487.647 737.5 552.484 704.175 607 646.362L658.642 721.436L692.041 633.837L775.464 646.362L670.5 374.072H710.009V374.073ZM400 118.311C454.663 118.311 482.764 162.208 482.764 207.911C482.764 225.05 479.028 239.161 470.606 247.412C459.498 258.302 446.413 257.203 445.117 258.35C445.117 258.35 445.117 269.922 445.117 277.564V280.567C445.117 283.131 443.017 285.206 440.478 285.206H429.37C426.831 285.206 424.756 283.131 424.756 280.567V266.48C423.681 265.869 422.681 266.602 421.802 266.114C421.802 266.162 421.827 266.212 421.827 266.236V280.567C421.827 283.131 419.752 285.206 417.188 285.206H406.103C403.539 285.206 401.464 283.131 401.464 280.567V266.236C401.464 265.772 401.563 265.333 401.684 264.894H400H398.316C398.437 265.333 398.536 265.773 398.536 266.236V280.567C398.536 283.131 396.461 285.206 393.897 285.206H382.812C380.248 285.206 378.173 283.131 378.173 280.567V266.236C378.173 266.211 378.198 266.162 378.198 266.114C377.319 266.603 376.319 265.87 375.244 266.48V280.567C375.244 283.131 373.169 285.206 370.63 285.206H359.522C356.983 285.206 354.883 283.131 354.883 280.567V277.564C354.883 269.922 354.883 258.35 354.883 258.35C353.589 257.203 340.503 258.302 329.394 247.412C320.97 239.161 317.236 225.048 317.236 207.911C317.236 162.208 345.337 118.311 400 118.311ZM420.288 374.073L167.259 494.337C166.356 486.036 165.867 477.589 165.867 469.044C165.867 435.255 173.094 403.175 185.936 374.073H420.288ZM402.1 705.273C291.992 705.273 199.536 629.492 173.438 527.417L174.267 529.15L217.089 508.789C222.9 533.887 240.356 570.923 292.969 567.091C353.736 562.672 379.834 498.878 376.537 433.033L500.586 374.073H618.213C631.055 403.175 638.33 435.255 638.33 469.044C638.33 599.317 532.348 705.273 402.1 705.273Z" fill="#F8F8F8"/>
<path d="M364.697 218.906C375.805 218.906 384.814 209.873 384.814 198.789V194.223C384.814 183.116 375.805 174.106 364.697 174.106C353.589 174.106 344.58 183.116 344.58 194.223V198.789C344.58 209.873 353.589 218.906 364.697 218.906Z" fill="#F8F8F8"/>
</svg>
